TITLE ""
FILE "1Q_j_2249-2262.mp3" MP3
  TRACK 01 AUDIO
    TITLE "1Q_j_2249-2262_01"
    INDEX 01 00:00:00
  TRACK 02 AUDIO
    TITLE "1Q_j_2249-2262_02"
    INDEX 01 00:01:37
  TRACK 03 AUDIO
    TITLE "1Q_j_2249-2262_03"
    INDEX 01 00:01:47
  TRACK 04 AUDIO
    TITLE "1Q_j_2249-2262_04"
    INDEX 01 00:04:26
  TRACK 05 AUDIO
    TITLE "1Q_j_2249-2262_05"
    INDEX 01 00:04:32
  TRACK 06 AUDIO
    TITLE "1Q_j_2249-2262_06"
    INDEX 01 00:11:18
  TRACK 07 AUDIO
    TITLE "1Q_j_2249-2262_07"
    INDEX 01 00:11:63
  TRACK 08 AUDIO
    TITLE "1Q_j_2249-2262_08"
    INDEX 01 00:13:19
  TRACK 09 AUDIO
    TITLE "1Q_j_2249-2262_09"
    INDEX 01 00:13:29
  TRACK 10 AUDIO
    TITLE "1Q_j_2249-2262_10"
    INDEX 01 00:15:47
  TRACK 11 AUDIO
    TITLE "1Q_j_2249-2262_11"
    INDEX 01 00:15:55
  TRACK 12 AUDIO
    TITLE "1Q_j_2249-2262_12"
    INDEX 01 00:21:46
  TRACK 13 AUDIO
    TITLE "1Q_j_2249-2262_13"
    INDEX 01 00:22:18
  TRACK 14 AUDIO
    TITLE "1Q_j_2249-2262_14"
    INDEX 01 00:23:35
  TRACK 15 AUDIO
    TITLE "1Q_j_2249-2262_15"
    INDEX 01 00:23:52
  TRACK 16 AUDIO
    TITLE "1Q_j_2249-2262_16"
    INDEX 01 00:25:63
  TRACK 17 AUDIO
    TITLE "1Q_j_2249-2262_17"
    INDEX 01 00:25:71
  TRACK 18 AUDIO
    TITLE "1Q_j_2249-2262_18"
    INDEX 01 00:30:72
  TRACK 19 AUDIO
    TITLE "1Q_j_2249-2262_19"
    INDEX 01 00:31:42
  TRACK 20 AUDIO
    TITLE "1Q_j_2249-2262_20"
    INDEX 01 00:32:73
  TRACK 21 AUDIO
    TITLE "1Q_j_2249-2262_21"
    INDEX 01 00:33:08
  TRACK 22 AUDIO
    TITLE "1Q_j_2249-2262_22"
    INDEX 01 00:35:13
  TRACK 23 AUDIO
    TITLE "1Q_j_2249-2262_23"
    INDEX 01 00:35:20
  TRACK 24 AUDIO
    TITLE "1Q_j_2249-2262_24"
    INDEX 01 00:40:49
  TRACK 25 AUDIO
    TITLE "1Q_j_2249-2262_25"
    INDEX 01 00:41:19
  TRACK 26 AUDIO
    TITLE "1Q_j_2249-2262_26"
    INDEX 01 00:42:22
  TRACK 27 AUDIO
    TITLE "1Q_j_2249-2262_27"
    INDEX 01 00:42:44
  TRACK 28 AUDIO
    TITLE "1Q_j_2249-2262_28"
    INDEX 01 00:44:55
  TRACK 29 AUDIO
    TITLE "1Q_j_2249-2262_29"
    INDEX 01 00:44:62
  TRACK 30 AUDIO
    TITLE "1Q_j_2249-2262_30"
    INDEX 01 00:51:02
  TRACK 31 AUDIO
    TITLE "1Q_j_2249-2262_31"
    INDEX 01 00:51:47
  TRACK 32 AUDIO
    TITLE "1Q_j_2249-2262_32"
    INDEX 01 00:52:68
  TRACK 33 AUDIO
    TITLE "1Q_j_2249-2262_33"
    INDEX 01 00:53:01
  TRACK 34 AUDIO
    TITLE "1Q_j_2249-2262_34"
    INDEX 01 00:54:67
  TRACK 35 AUDIO
    TITLE "1Q_j_2249-2262_35"
    INDEX 01 00:54:73
  TRACK 36 AUDIO
    TITLE "1Q_j_2249-2262_36"
    INDEX 01 01:00:46
  TRACK 37 AUDIO
    TITLE "1Q_j_2249-2262_37"
    INDEX 01 01:01:18
  TRACK 38 AUDIO
    TITLE "1Q_j_2249-2262_38"
    INDEX 01 01:02:45
  TRACK 39 AUDIO
    TITLE "1Q_j_2249-2262_39"
    INDEX 01 01:02:54
  TRACK 40 AUDIO
    TITLE "1Q_j_2249-2262_40"
    INDEX 01 01:05:59
  TRACK 41 AUDIO
    TITLE "1Q_j_2249-2262_41"
    INDEX 01 01:05:65
  TRACK 42 AUDIO
    TITLE "1Q_j_2249-2262_42"
    INDEX 01 01:10:66
  TRACK 43 AUDIO
    TITLE "1Q_j_2249-2262_43"
    INDEX 01 01:11:38
  TRACK 44 AUDIO
    TITLE "1Q_j_2249-2262_44"
    INDEX 01 01:13:01
  TRACK 45 AUDIO
    TITLE "1Q_j_2249-2262_45"
    INDEX 01 01:13:15
  TRACK 46 AUDIO
    TITLE "1Q_j_2249-2262_46"
    INDEX 01 01:17:17
  TRACK 47 AUDIO
    TITLE "1Q_j_2249-2262_47"
    INDEX 01 01:17:25
  TRACK 48 AUDIO
    TITLE "1Q_j_2249-2262_48"
    INDEX 01 01:23:35
  TRACK 49 AUDIO
    TITLE "1Q_j_2249-2262_49"
    INDEX 01 01:24:05
  TRACK 50 AUDIO
    TITLE "1Q_j_2249-2262_50"
    INDEX 01 01:25:34
  TRACK 51 AUDIO
    TITLE "1Q_j_2249-2262_51"
    INDEX 01 01:25:42
  TRACK 52 AUDIO
    TITLE "1Q_j_2249-2262_52"
    INDEX 01 01:27:23
  TRACK 53 AUDIO
    TITLE "1Q_j_2249-2262_53"
    INDEX 01 01:27:31
  TRACK 54 AUDIO
    TITLE "1Q_j_2249-2262_54"
    INDEX 01 01:33:55
  TRACK 55 AUDIO
    TITLE "1Q_j_2249-2262_55"
    INDEX 01 01:34:25
  TRACK 56 AUDIO
    TITLE "1Q_j_2249-2262_56"
    INDEX 01 01:35:44
  TRACK 57 AUDIO
    TITLE "1Q_j_2249-2262_57"
    INDEX 01 01:35:52
  TRACK 58 AUDIO
    TITLE "1Q_j_2249-2262_58"
    INDEX 01 01:37:51
  TRACK 59 AUDIO
    TITLE "1Q_j_2249-2262_59"
    INDEX 01 01:37:59
  TRACK 60 AUDIO
    TITLE "1Q_j_2249-2262_60"
    INDEX 01 01:43:20
  TRACK 61 AUDIO
    TITLE "1Q_j_2249-2262_61"
    INDEX 01 01:43:67
  TRACK 62 AUDIO
    TITLE "1Q_j_2249-2262_62"
    INDEX 01 01:45:39
  TRACK 63 AUDIO
    TITLE "1Q_j_2249-2262_63"
    INDEX 01 01:45:46
  TRACK 64 AUDIO
    TITLE "1Q_j_2249-2262_64"
    INDEX 01 01:48:04
  TRACK 65 AUDIO
    TITLE "1Q_j_2249-2262_65"
    INDEX 01 01:48:13
  TRACK 66 AUDIO
    TITLE "1Q_j_2249-2262_66"
    INDEX 01 01:53:32
  TRACK 67 AUDIO
    TITLE "1Q_j_2249-2262_67"
    INDEX 01 01:54:02
  TRACK 68 AUDIO
    TITLE "1Q_j_2249-2262_68"
    INDEX 01 01:55:33
  TRACK 69 AUDIO
    TITLE "1Q_j_2249-2262_69"
    INDEX 01 01:55:43
  TRACK 70 AUDIO
    TITLE "1Q_j_2249-2262_70"
    INDEX 01 01:57:52
  TRACK 71 AUDIO
    TITLE "1Q_j_2249-2262_71"
    INDEX 01 01:57:59
  TRACK 72 AUDIO
    TITLE "1Q_j_2249-2262_72"
    INDEX 01 02:02:31
  TRACK 73 AUDIO
    TITLE "1Q_j_2249-2262_73"
    INDEX 01 02:03:01
  TRACK 74 AUDIO
    TITLE "1Q_j_2249-2262_74"
    INDEX 01 02:04:32
  TRACK 75 AUDIO
    TITLE "1Q_j_2249-2262_75"
    INDEX 01 02:04:42
  TRACK 76 AUDIO
    TITLE "1Q_j_2249-2262_76"
    INDEX 01 02:06:35
  TRACK 77 AUDIO
    TITLE "1Q_j_2249-2262_77"
    INDEX 01 02:06:41
  TRACK 78 AUDIO
    TITLE "1Q_j_2249-2262_78"
    INDEX 01 02:10:33
  TRACK 79 AUDIO
    TITLE "1Q_j_2249-2262_79"
    INDEX 01 02:11:03
  TRACK 80 AUDIO
    TITLE "1Q_j_2249-2262_80"
    INDEX 01 02:12:32
  TRACK 81 AUDIO
    TITLE "1Q_j_2249-2262_81"
    INDEX 01 02:12:41
  TRACK 82 AUDIO
    TITLE "1Q_j_2249-2262_82"
    INDEX 01 02:14:44
  TRACK 83 AUDIO
    TITLE "1Q_j_2249-2262_83"
    INDEX 01 02:14:54
  TRACK 84 AUDIO
    TITLE "1Q_j_2249-2262_84"
    INDEX 01 02:19:40
